<svg width="1272" height="286" viewBox="0 0 1272 286" xmlns="http://www.w3.org/2000/svg" xmlns:xlink="http://www.w3.org/1999/xlink">
    <defs>
        <path id="footer_svg__a" d="M.178.22h59.944v51.933H.178z"/>
        <path id="footer_svg__c" d="M0 104h99V0H0z"/>
        <path id="footer_svg__d" d="M.934.684H12.27v11.423H.934z"/>
    </defs>
    <g fill="none" fill-rule="evenodd">
        <path d="M1126.498 210c-8.185 0-14.82 16.796-14.82 37.515s6.635 37.515 14.82 37.515c8.186 0 14.822-16.796 14.822-37.515 0-20.72-6.636-37.515-14.822-37.515m0 1.242c6.56 0 13.58 14.575 13.58 36.273 0 21.697-7.02 36.273-13.58 36.273-6.557 0-13.58-14.576-13.58-36.273 0-21.698 7.023-36.273 13.58-36.273" fill="#AECBFA"/>
        <path d="M1091.065 235.01h71.02" stroke="#AECBFA" stroke-width="1.5"/>
        <path d="M1126.498 210c-20.71 0-37.498 16.796-37.498 37.515s16.789 37.515 37.498 37.515c20.71 0 37.5-16.796 37.5-37.515 0-20.72-16.79-37.515-37.5-37.515m0 1.242c19.993 0 36.258 16.272 36.258 36.273 0 20.001-16.265 36.273-36.258 36.273-19.992 0-36.257-16.272-36.257-36.273 0-20.001 16.265-36.273 36.257-36.273" fill="#AECBFA"/>
        <path d="M1091.29 260.02h70.574" stroke="#AECBFA" stroke-width="1.5"/>
        <path d="M473.5 260.97l-30.376-30.678 20.25-20.452-15.187-15.34-20.25 20.453c-12.582 12.707-12.582 33.31 0 46.017 12.581 12.707 32.981 12.707 45.563 0" fill="#FAD2CF"/>
        <path stroke="#4285F4" stroke-width="1.495" d="M194 140l22.5 23 22.5-23"/>
        <path d="M1162.652 24l-17.317 17.241c-8.447 8.409-8.447 22.043 0 30.452 8.446 8.41 22.14 8.41 30.587 0L1203 44.735M1204 30l-25 25M1203 16l-31 31M1190 13l-26 26" stroke="#EA4335" stroke-width="1.5"/>
        <path fill="#A8DAB5" d="M1031 143l-5-5-5 5 5 5z"/>
        <path stroke="#1E8E3E" stroke-width="1.5" d="M1018 130l-5-5-5 5 5 5z"/>
        <path stroke="#A8DAB5" stroke-width="1.5" d="M1002 114l-5-5-5 5 5 5z"/>
        <g transform="translate(910)">
            <mask id="footer_svg__b" fill="#fff">
                <use xlink:href="#footer_svg__a"/>
            </mask>
            <path fill="#FDE293" mask="url(#footer_svg__b)" d="M60.122 52.153L30.149.22.178 52.153"/>
        </g>
        <path fill="#EA4335" d="M818.444 200L834 215.556 849.556 200 834 184.444z"/>
        <path d="M1239 220h10.273c12 0 21.727-9.626 21.727-21.5s-9.727-21.5-21.727-21.5" stroke="#34A853" stroke-width="1.5"/>
        <g>
            <path d="M627 108c0 8.271-7.625 15-17 15-9.374 0-17-6.729-17-15M675 166c0 15.464-14.774 28-33 28M690 108c0 8.177-7.715 14.829-17.198 14.829s-17.439-6.652-17.439-14.829L627 150h30.672" stroke="#4285F4" stroke-width="1.8"/>
        </g>
        <path fill="#34A853" d="M134 271h29v-22h-29z"/>
        <path d="M87 52.5a5.5 5.5 0 10-11 0 5.5 5.5 0 0011 0z" stroke="#EA4335" stroke-width="1.5"/>
        <path stroke="#FFF" stroke-width="1.5" d="M487.5 84l-6.5-6.5 6.5-6.5 6.5 6.5z"/>
        <g>
            <path fill="#A8DAB5" d="M297 44h36V8h-36z"/>
            <path d="M334 45L296 7M296 46l39-39" stroke="#FFF" stroke-width="1.5"/>
        </g>
        <g>
            <g transform="translate(-.752 187.175)">
                <path d="M6.602 22.868c-3.13 0-5.668 2.558-5.668 5.711 0 3.155 2.537 5.712 5.668 5.712 3.13 0 5.667-2.557 5.667-5.712 0-3.153-2.537-5.71-5.667-5.71m0 1.288c2.42 0 4.388 1.984 4.388 4.422 0 2.44-1.968 4.424-4.388 4.424s-4.389-1.984-4.389-4.424c0-2.438 1.968-4.422 4.389-4.422M6.602 45.053c-3.13 0-5.668 2.557-5.668 5.711 0 3.154 2.537 5.712 5.668 5.712 3.13 0 5.667-2.558 5.667-5.712s-2.537-5.711-5.667-5.711m0 1.289c2.42 0 4.388 1.984 4.388 4.422 0 2.439-1.968 4.423-4.388 4.423s-4.389-1.984-4.389-4.423c0-2.438 1.968-4.422 4.389-4.422" fill="#FBBC04"/>
                <mask id="footer_svg__e" fill="#fff">
                    <use xlink:href="#footer_svg__d"/>
                </mask>
                <path d="M6.602.684C3.472.684.934 3.24.934 6.394c0 3.155 2.537 5.713 5.668 5.713 3.13 0 5.667-2.558 5.667-5.712S9.732.684 6.602.684m0 1.288c2.42 0 4.388 1.985 4.388 4.423 0 2.44-1.968 4.423-4.388 4.423S2.213 8.835 2.213 6.395c0-2.438 1.968-4.423 4.389-4.423" fill="#FBBC04" mask="url(#footer_svg__e)"/>
                <path d="M40.156 104.537V77.395M28.93 95.946V73.959M17.703 95.946V71.382M6.478 95.946V50.765" stroke="#FBBC04" stroke-width="1.5" mask="url(#footer_svg__e)"/>
            </g>
        </g>
    </g>
</svg>
