<svg width="1317" height="411" viewBox="0 0 1317 411" xmlns="http://www.w3.org/2000/svg" xmlns:xlink="http://www.w3.org/1999/xlink">
    <defs>
        <path id="hero-desktop_svg__a" d="M.178.22h59.944v51.933H.178z"/>
    </defs>
    <g fill="none" fill-rule="evenodd">
        <path fill="#AECBFA" d="M0 372h75v-87H0z"/>
        <path stroke="#FFF" stroke-width="1.5" d="M19 339h36v-36H19z"/>
        <path d="M166 228.364c0-5.172 4.17-9.364 9.315-9.364 5.144 0 9.315 4.192 9.315 9.364 0 5.173-4.17 9.365-9.315 9.365-5.144 0-9.315-4.192-9.315-9.365" fill="#FDE293"/>
        <path d="M186.822 257.888l18.893 19.119a23.404 23.404 0 0033.374 0c9.215-9.325 9.215-24.444 0-33.768l-16.334-16.527m-9.632 5.508l12.055 12.119m-21.918-5.509l14.247 14.323m-42.74-26.441l33.973 34.152" stroke="#34A853" stroke-width="1.65"/>
        <path d="M74.498 64c-8.185 0-14.82 16.796-14.82 37.515s6.635 37.515 14.82 37.515c8.186 0 14.822-16.796 14.822-37.515C89.32 80.795 82.684 64 74.498 64m0 1.242c6.56 0 13.58 14.575 13.58 36.273 0 21.697-7.02 36.273-13.58 36.273-6.557 0-13.58-14.576-13.58-36.273 0-21.698 7.023-36.273 13.58-36.273" fill="#FDE293"/>
        <path d="M39.065 89.01h71.02" stroke="#FDE293" stroke-width="1.5"/>
        <path d="M74.498 64C53.788 64 37 80.796 37 101.515s16.789 37.515 37.498 37.515c20.71 0 37.5-16.796 37.5-37.515 0-20.72-16.79-37.515-37.5-37.515m0 1.242c19.993 0 36.258 16.272 36.258 36.273 0 20.001-16.265 36.273-36.258 36.273-19.992 0-36.257-16.272-36.257-36.273 0-20.001 16.265-36.273 36.257-36.273" fill="#FDE293"/>
        <path d="M39.29 114.02h70.574" stroke="#FDE293" stroke-width="1.5"/>
        <path stroke="#EA4335" stroke-width="1.5" d="M143 392l-10-10 10-10 10 10z"/>
        <path d="M202 26.5a5.5 5.5 0 10-11 0 5.5 5.5 0 0011 0z" stroke="#AECBFA" stroke-width="1.5"/>
        <g>
            <path fill="#FDE293" d="M1114 186h43V99h-43z"/>
            <path stroke="#E37400" stroke-width="1.5" d="M1184 126h-51v31.527h40.564L1184 168v-10.473z"/>
            <path d="M1275 26c0-14.36-11.64-26-26-26s-26 11.64-26 26 11.64 26 26 26 26-11.64 26-26" fill="#A8DAB5"/>
            <path stroke="#34A853" stroke-width="1.5" d="M1241 39l21-12-21-12z"/>
            <path d="M1037.5 330v32m-15.5-16.5h32" stroke="#A8DAB5" stroke-width="1.5"/>
            <path fill="#34A853" d="M1301.648 407L1286 391.352 1301.353 376 1317 391.647z"/>
            <path d="M1109 405a5 5 0 1110 0 5 5 0 01-10 0z" stroke="#174EA6" stroke-width="1.5"/>
            <path d="M1286 166.5a5.5 5.5 0 10-11 0 5.5 5.5 0 0011 0z" stroke="#AECBFA" stroke-width="1.5"/>
            <path fill="#FDE293" d="M1237 245h23v-9h-23z"/>
            <g transform="translate(1188 325)">
                <mask id="hero-desktop_svg__b" fill="#fff">
                    <use xlink:href="#hero-desktop_svg__a"/>
                </mask>
                <path fill="#FAD2CF" mask="url(#hero-desktop_svg__b)" d="M60.122 52.153L30.149.22.178 52.153"/>
            </g>
        </g>
    </g>
</svg>
